<?xml version="1.0" encoding="utf-8"?>
<!-- Generator: Adobe Illustrator 24.1.1, SVG Export Plug-In . SVG Version: 6.00 Build 0)  -->
<svg version="1.1" id="Layer_1" xmlns="http://www.w3.org/2000/svg" xmlns:xlink="http://www.w3.org/1999/xlink" x="0px" y="0px"
	 viewBox="0 0 512 512" style="enable-background:new 0 0 512 512;" xml:space="preserve">
<g>
	<path d="M171.9,294.9l-99.2-99.2l99.2-99.2c11.8-11.8,11.8-30.8,0-42.6s-30.8-11.8-42.6,0L8.8,174.5C3.2,180.1,0,187.8,0,195.8
		c0,7.9,3.2,15.7,8.8,21.3l120.5,120.5c11.8,11.8,30.8,11.8,42.6,0C183.6,325.8,183.6,306.7,171.9,294.9L171.9,294.9z M30.1,225.9
		h331.3c49.9,0.1,90.3,40.5,90.4,90.4c-0.1,49.9-40.5,90.3-90.4,90.4h-30.1c-16.6,0-30.1,13.5-30.1,30.1c0,16.6,13.5,30.1,30.1,30.1
		h30.1c83.2,0,150.6-67.4,150.6-150.6c0-83.2-67.4-150.6-150.6-150.6H30.1C13.5,165.6,0,179.1,0,195.8
		C0,212.4,13.5,225.9,30.1,225.9L30.1,225.9z"/>
</g>
</svg>
